<svg xmlns="http://www.w3.org/2000/svg" version="1.1" xmlns:xlink="http://www.w3.org/1999/xlink" width="1080" height="1080"><svg id="SvgjsSvg1026" data-name="Layer 1" xmlns="http://www.w3.org/2000/svg" viewBox="0 0 1080 1080">
  <defs>
    <style>
      .cls-1 {
        fill: #1a9952;
        stroke-width: 0px;
      }
    </style>
  </defs>
  <path class="cls-1" d="m301.68,284.72c-7.03,0-13.07,5.21-14,12.28l-21.8,165.5c-1.05,8.04-7.57,12.28-14.08,12.28-5.65,0-11.31-3.21-13.4-9.92l-53.15-170.5c-1.89-6.07-7.48-9.93-13.48-9.93-1.56,0-3.15.26-4.72.82L9.41,341.11c-7.85,2.78-11.6,11.71-8.08,19.27l179.62,386.26c2.34,5.03,7.37,8.17,12.8,8.17.75,0,1.51-.07,2.28-.19l160.63-26.1c5.51-.9,9.98-4.95,11.4-10.36l80.66-306.89,5.94-115.71-151.97-10.8c-.34-.02-.67-.03-1.01-.03Z"></path>
  <path class="cls-1" d="m1076.67,484.39c-2.85-36.54-7.95-66.26-15.29-89.15-5.44-18.16-15.76-34.14-30.98-47.91-15.21-13.79-32.63-23.3-52.24-28.57-13.93-3.74-27.93-5.6-42.01-5.6-5.74,0-11.49.3-17.25.93-19.91,2.16-38.75,10.68-56.5,25.58-17.78,14.91-31.38,35.15-40.82,60.7l-1.83-9.57c-1.17-6.96-3.81-15.32-7.89-25.07-4.09-9.76-9.34-19.61-15.69-29.56-6.38-9.94-15.68-18.82-27.93-26.65-12.25-7.83-26.35-12.38-42.27-13.63-3.77-.3-7.45-.45-11.07-.45-7.86,0-15.36.71-22.52,2.1-10.46,2.04-19.4,4.76-26.81,8.18-7.43,3.42-14.49,7.73-21.18,12.91-6.71,5.2-11.94,9.93-15.71,14.21-3.77,4.29-7.27,8.87-10.51,13.75-3.26,4.9-5.23,8.17-5.93,9.84-.71,1.66-1.39,3.04-2.04,4.12l-.83-52.82c-.1-6.22-4.65-11.47-10.78-12.44l-104.14-16.52c-.68-.11-1.37-.17-2.03-.17-1.42,0-2.8.24-4.1.68-4.54,1.55-8.01,5.6-8.59,10.66-.03.26-.06.53-.07.8l-3.61,70.21-3.42,66.69-15.73,306.27c-.34,6.66,4.49,12.47,11.12,13.34l138.04,18.1c.57.08,1.13.11,1.68.11,6.85,0,12.62-5.48,12.77-12.52l1.28-60.27c1.61-49.64,6.96-99.27,16.03-148.9,8.96-49.07,20.44-73.61,34.5-73.61.16,0,.31.01.47.01,22.82.66,33.25,60.68,31.29,180.08l-5.32,106.29c-.37,7.29,5.42,13.39,12.71,13.43l114.11.54h.06c6.5,0,11.97-4.88,12.71-11.33l6.96-60.89c4.94-48.23,12.56-95.97,22.88-143.22,9.77-44.9,19.21-67.34,28.31-67.34.48,0,.95.06,1.42.18,22,4.54,22.6,100.55,1.78,288.02-.8,7.2,4.49,13.65,11.7,14.21l142.39,11.22c.34.02.67.04,1.01.04,6.49,0,12.05-4.94,12.73-11.51,3.59-34.82,6.29-66.77,8.07-95.78,1.98-32.45,3.36-66.37,4.16-101.78.77-35.41-.26-71.37-3.08-107.93Z"></path>
</svg><style>@media (prefers-color-scheme: light) { :root { filter: none; } }
@media (prefers-color-scheme: dark) { :root { filter: none; } }
</style></svg>