<?xml version="1.0" encoding="UTF-8"?>
<svg id="Layer_1" data-name="Layer 1" xmlns="http://www.w3.org/2000/svg" viewBox="0 0 998.36 512.8">
  <defs>
    <style>
      .cls-1 {
        fill: #1a9952;
        stroke-width: 0px;
      }
    </style>
  </defs>
  <path class="cls-1" d="m298.13,246.14c8.13-44.81,22.01-110.04,41.63-195.69h-74.65c-3.37,21.61-8.33,51.26-14.87,88.92-6.74,39.06-11,65.33-12.79,78.81h-3.57c-1.78-15.26-6.44-43.82-13.98-85.65-7.14-40.25-11.7-67.61-13.68-82.08h-74.94c19.43,83.47,33.41,148.7,41.93,195.69h124.91Z"/>
  <path class="cls-1" d="m352.43,46.99c6.64,4.16,17.99,6.25,34.05,6.25s27.41-2.08,34.05-6.25c6.64-4.16,9.96-10.9,9.96-20.22s-3.32-16.11-9.96-20.37c-6.64-4.26-17.99-6.39-34.05-6.39s-27.41,2.13-34.05,6.39c-6.64,4.27-9.96,11.05-9.96,20.37s3.32,16.06,9.96,20.22Z"/>
  <path class="cls-1" d="m406.71,65.57c-6.35.7-13.09,1.04-20.22,1.04-10.31,0-22.61-.99-36.88-2.97.79,26.76,1.19,59.78,1.19,99.03,0,28.95-.4,56.61-1.19,82.98h73.75c-.4-25.38-.59-53.03-.59-82.98,0-39.85.2-72.86.59-99.03-4.76.59-10.31,1.24-16.65,1.93Z"/>
  <path class="cls-1" d="m315.84,399.6l-.3-57.7c0-22.6-4.76-40.94-14.28-55.02-9.51-14.07-24.49-21.12-44.91-21.12-8.73,0-17.6,1.64-26.62,4.91-9.03,3.27-17,8.88-23.94,16.81-6.94,7.93-11.2,18.54-12.79,31.82h-3.87c-1.19-17.64-7.09-31.08-17.7-40.3-10.61-9.22-23.84-13.72-39.7-13.53-15.27.2-28.4,5.11-39.41,14.72-11,9.62-17.69,22.65-20.07,39.11h-4.16l6.25-49.67H0c.79,20.42,1.19,53.14,1.19,98.14s-.4,77.32-1.19,97.55h74.35c-.99-28.55-1.49-62.35-1.49-101.41v-33.9c1.78-3.57,4.76-6.59,8.92-9.07,4.16-2.48,8.22-3.72,12.19-3.72,9.12,0,16.11,3.92,20.97,11.75,4.86,7.83,7.38,20.18,7.58,37.03,0,14.08-.05,31.28-.15,51.6-.1,20.33-.25,36.24-.45,47.73h73.75c-.79-40.64-1.29-72.76-1.49-96.36v-38.96c1.78-3.57,4.71-6.59,8.77-9.07,4.06-2.48,7.98-3.72,11.75-3.72,11.5,0,19.23,4.51,23.2,13.53,3.96,9.02,5.95,21.86,5.95,38.51v38.96c0,10.91-.3,29.94-.89,57.1h73.46c-.2-7.14-.3-16.85-.3-29.14s-.1-24.49-.3-36.58Z"/>
  <path class="cls-1" d="m532.68,397.52v-40.15c-.2-20.02-3.27-36.73-9.22-50.11-5.95-13.38-15.96-23.69-30.04-30.93-14.08-7.23-33.11-10.86-57.1-10.86-17.45,0-33.41,3.08-47.88,9.22-14.48,6.15-26.17,15.37-35.09,27.66-8.92,12.3-13.88,27.46-14.87,45.5l68.7,8.92c.99-13.28,2.77-24.98,5.36-35.09,3.96-2.18,8.52-3.57,13.68-4.17,13.28,0,22.35,4.31,27.21,12.94,4.86,8.62,7.29,19.98,7.29,34.05v4.46c-13.88-1.19-25.58-1.79-35.09-1.79-16.85,0-32.32,2.08-46.39,6.25-14.08,4.16-25.33,10.36-33.75,18.59-8.43,8.23-12.64,18.1-12.64,29.59,0,14.67,5.4,26.27,16.21,34.8,10.81,8.53,26.12,12.79,45.95,12.79,17.25,0,31.72-5.25,43.42-15.76,11.7-10.51,19.33-23.59,22.9-39.26h4.16l-5.36,51.15h72.87c-.2-8.92-.3-25.97-.3-51.15v-16.65Zm-71.97,3.57c-3.57,4.16-8.48,8.33-14.72,12.49-6.24,4.16-12.54,6.25-18.88,6.25-7.14,0-12.89-1.39-17.25-4.16-4.36-2.77-6.54-6.84-6.54-12.19,0-7.53,4.26-13.18,12.79-16.95,8.52-3.76,19.33-5.65,32.42-5.65,5.95,0,10.01.1,12.19.3v19.92Z"/>
  <path class="cls-1" d="m641.42,246.14h.06c-.02-.71-.05-1.46-.07-2.22v-2.38s-.04,0-.06,0c-.31-12.39-.46-30.58-.46-54.58-.2-10.51-.3-21.16-.3-31.97s-.1-20.37-.3-28.7c-.6-18.24-2.73-33.11-6.39-44.61-3.67-11.5-9.72-20.22-18.14-26.17-8.43-5.95-19.88-8.92-34.35-8.92-15.67,0-29.64,4.96-41.94,14.87-12.29,9.92-20.82,23.1-25.58,39.55h-4.16l6.24-50.56h-74.05c.79,20.42,1.19,53.14,1.19,98.14s-.4,77.32-1.19,97.55h74.05c-.8-19.43-1.19-49.86-1.19-91.3v-44.31c1.98-3.37,5.85-6.34,11.6-8.92,5.75-2.57,10.81-3.87,15.17-3.87,9.12,0,15.91,4.12,20.37,12.34,4.46,8.23,6.69,19.98,6.69,35.24v43.72c0,19.73-.17,37.28-.5,52.72l-.83,20.74c.2,1.59-.13,4.07-.13,7.44-10.71-.6-18.34-.89-22.9-.89v52.64l23.5-1.19v62.46c0,21.02,2.13,37.52,6.39,49.52,4.26,12,11.75,20.87,22.45,26.62,10.71,5.75,25.87,8.62,45.5,8.62,12.09,0,24.09-1.09,35.99-3.27,0-11.5.59-29.15,1.78-52.94-9.92.99-20.62,1.49-32.12,1.49-2.78,0-4.66-2.72-5.65-8.18-.99-5.45-1.49-13.33-1.49-23.64l-.3-60.67,41.64,1.49c0-2.97.2-7.23.6-12.79.4-6.34.59-11,.59-13.98,0-5.75.4-14.57,1.19-26.47l-42.86,1.17-.06-23.78Z"/>
  <path class="cls-1" d="m718.44,447.22c6.35-.7,13.08-1.04,20.22-1.04,10.31,0,22.6.99,36.88,2.97-.79-26.76-1.19-59.78-1.19-99.03,0-28.95.4-56.61,1.19-82.98h-73.76c.4,25.38.6,53.03.6,82.98,0,39.85-.2,72.86-.6,99.03,4.76-.59,10.31-1.24,16.66-1.93Z"/>
  <path class="cls-1" d="m772.71,465.81c-6.64-4.16-17.99-6.25-34.05-6.25s-27.41,2.08-34.05,6.25c-6.64,4.16-9.96,10.9-9.96,20.22s3.32,16.11,9.96,20.37c6.65,4.26,17.99,6.39,34.05,6.39s27.41-2.13,34.05-6.39c6.65-4.27,9.96-11.06,9.96-20.37s-3.32-16.06-9.96-20.22Z"/>
  <path class="cls-1" d="m951.07,387.11c-3.38-6.74-8.53-11.65-15.47-14.72-6.94-3.07-17.15-4.8-30.63-5.2v-3.87c13.88-.6,24.43-2.28,31.67-5.06,7.24-2.77,12.14-7.33,14.72-13.68,10.9-19.03,24.98-44.02,42.23-74.95h-75.24l-42.82,84.76h-9.52c.6-35.88,1.58-75.34,2.97-118.37l-63.67,6.07c1.96-.73,3.84-1.51,5.65-2.35,14.37-6.64,24.98-16.31,31.82-29,6.84-12.69,10.95-28.85,12.34-48.48l-69.89-.3c-.6,11.5-1.79,22.11-3.57,31.82-2.58,1.19-5.8,2.13-9.67,2.82-3.87.7-7.49,1.04-10.86,1.04-10.51,0-18.34-4.31-23.49-12.94-5.16-8.62-7.83-20.07-8.03-34.35l125.8-11.6-.89-2.08h.89c-1.79-31.32-10.01-54.17-24.69-68.55-14.67-14.37-37.67-21.56-68.99-21.56-34.7,0-60.82,8.38-78.37,25.13-17.55,16.75-26.32,42.28-26.32,76.58s8.28,59.78,24.83,76.43c16.55,16.65,40.59,24.98,72.12,24.98,15.28,0,28.62-1.4,40.03-4.19v6.57c.39,42.43.59,75.54.59,99.33,0,29.14-.2,67.11-.59,113.9h74.94c-.99-23.79-1.89-48.77-2.68-74.95,0-4.95-.1-8.92-.3-11.89h9.81l43.12,86.84h79.41c-15.47-26.17-31.23-52.24-47.29-78.22Zm-218.48-283.72c3.37-1.78,7.14-3.17,11.3-4.16,4.16-.99,8.13-1.49,11.9-1.49,16.25,0,25.87,11,28.85,33.01l-54.72,5.06c.19-6.74,1.09-17.55,2.68-32.42Z"/>
</svg>