<?xml version="1.0" encoding="UTF-8"?>
<svg id="Layer_1" data-name="Layer 1" xmlns="http://www.w3.org/2000/svg" viewBox="0 0 1003.74 173.05">
  <defs>
    <style>
      .cls-1 {
        fill: #1a9952;
        stroke-width: 0px;
      }
    </style>
  </defs>
  <path class="cls-1" d="m0,29.74h44.18c1.17,8.53,3.86,24.66,8.07,48.39,4.44,24.66,7.19,41.49,8.24,50.49h2.1c1.05-7.95,3.56-23.43,7.54-46.46,3.86-22.2,6.78-39.68,8.77-52.42h44c-11.57,50.49-19.75,88.95-24.54,115.36H24.72C19.69,117.4,11.45,78.94,0,29.74Z"/>
  <path class="cls-1" d="m129.1,27.7c-3.92-2.45-5.87-6.43-5.87-11.92s1.96-9.49,5.87-12.01c3.91-2.51,10.61-3.77,20.07-3.77s16.16,1.26,20.07,3.77c3.91,2.51,5.87,6.52,5.87,12.01s-1.96,9.47-5.87,11.92c-3.92,2.45-10.61,3.68-20.07,3.68s-16.16-1.23-20.07-3.68Zm-.96,68.2c0-23.14-.24-42.6-.7-58.38,8.41,1.17,15.66,1.75,21.74,1.75,4.21,0,8.18-.2,11.92-.61,3.74-.41,7.01-.79,9.82-1.14-.24,15.43-.35,34.89-.35,58.38,0,17.65.12,33.95.35,48.91h-43.48c.47-15.54.7-31.85.7-48.91Z"/>
  <path class="cls-1" d="m182.55,87.59c0-26.53-.24-45.82-.7-57.85h43.65l-3.68,29.8h2.45c2.8-9.7,7.83-17.47,15.08-23.32,7.25-5.84,15.49-8.77,24.72-8.77,8.53,0,15.28,1.75,20.25,5.26,4.97,3.51,8.53,8.65,10.69,15.43,2.16,6.78,3.42,15.55,3.77,26.3.12,4.91.18,10.55.18,16.92s.06,12.65.18,18.85c0,16.01.11,27.64.35,34.89h-43.3c.23-9.7.35-20.92.35-33.66v-25.77c0-9-1.32-15.92-3.94-20.78-2.63-4.85-6.63-7.28-12.01-7.28-2.57,0-5.55.76-8.94,2.28-3.39,1.52-5.67,3.27-6.84,5.26v26.12c0,24.43.23,42.37.7,53.82h-43.65c.47-11.92.7-31.09.7-57.5Z"/>
  <path class="cls-1" d="m423.72,81.81l-74.16,6.84c.12,8.42,1.69,15.17,4.73,20.25,3.04,5.08,7.65,7.63,13.85,7.63,1.99,0,4.12-.2,6.4-.61,2.28-.41,4.18-.96,5.7-1.67,1.05-5.73,1.75-11.98,2.1-18.76l41.2.17c-.82,11.57-3.24,21.1-7.28,28.58-4.03,7.48-10.29,13.18-18.76,17.09-8.48,3.92-19.67,5.87-33.57,5.87-18.58,0-32.76-4.91-42.51-14.73-9.76-9.82-14.64-24.84-14.64-45.06s5.17-35.27,15.52-45.14c10.34-9.88,25.74-14.81,46.2-14.81,18.46,0,32.02,4.24,40.67,12.71,8.65,8.48,13.5,21.95,14.55,40.41h-.53l.53,1.23Zm-65.74-23.32c-2.45.59-4.68,1.4-6.66,2.45-.94,8.77-1.46,15.14-1.58,19.11l32.26-2.98c-1.75-12.97-7.42-19.46-17.01-19.46-2.22,0-4.56.29-7.01.88Z"/>
  <g>
    <path class="cls-1" d="m431.87,87.57c0-26.53-.24-45.82-.7-57.85h43.83l-3.68,29.28h2.45c1.4-9.7,5.35-17.38,11.83-23.05,6.49-5.67,14.23-8.56,23.23-8.68,9.35-.11,17.15,2.54,23.41,7.98,6.25,5.44,9.73,13.36,10.43,23.76h2.28c.94-7.83,3.45-14.08,7.54-18.76,4.09-4.67,8.79-7.98,14.11-9.91,5.32-1.93,10.55-2.89,15.69-2.89,12.04,0,20.86,4.15,26.47,12.45,5.61,8.3,8.42,19.11,8.42,32.43l.18,34.01c.12,7.13.17,14.32.17,21.56s.06,12.97.18,17.18h-43.3c.35-16.01.52-27.23.52-33.66v-22.97c0-9.82-1.17-17.38-3.51-22.7-2.34-5.32-6.9-7.98-13.67-7.98-2.22,0-4.53.73-6.93,2.19-2.4,1.46-4.12,3.24-5.17,5.35v22.97c.11,13.91.41,32.84.88,56.8h-43.48c.11-6.78.2-16.16.26-28.14.06-11.98.09-22.12.09-30.42-.12-9.93-1.61-17.21-4.47-21.83-2.87-4.62-6.99-6.93-12.36-6.93-2.34,0-4.73.73-7.19,2.19-2.46,1.46-4.21,3.24-5.26,5.35v19.99c0,23.03.29,42.95.88,59.78h-43.83c.47-11.92.7-31.09.7-57.5Z"/>
    <path class="cls-1" d="m633.29,139.81c-6.37-5.02-9.55-11.86-9.55-20.51,0-6.78,2.48-12.59,7.45-17.44,4.97-4.85,11.6-8.5,19.9-10.96,8.3-2.45,17.41-3.68,27.35-3.68,5.61,0,12.51.35,20.69,1.05v-2.63c0-8.3-1.43-14.99-4.3-20.07-2.87-5.08-8.21-7.63-16.04-7.63-3.04.35-5.73,1.17-8.06,2.46-1.52,5.96-2.57,12.86-3.16,20.69l-40.5-5.26c.58-10.63,3.51-19.57,8.77-26.82,5.26-7.25,12.15-12.68,20.69-16.3,8.53-3.62,17.94-5.44,28.23-5.44,14.14,0,25.36,2.14,33.66,6.4,8.3,4.27,14.2,10.34,17.71,18.23,3.51,7.89,5.32,17.74,5.43,29.54v33.48c0,14.84.06,24.89.18,30.15h-42.95l3.16-30.15h-2.45c-2.1,9.23-6.6,16.95-13.5,23.14-6.9,6.2-15.43,9.29-25.6,9.29-11.69,0-20.72-2.51-27.09-7.54Zm57.15-25.24c3.68-2.46,6.57-4.91,8.68-7.36v-11.74c-1.29-.12-3.68-.18-7.19-.18-7.71,0-14.09,1.11-19.11,3.33-5.03,2.22-7.54,5.55-7.54,9.99,0,3.16,1.29,5.55,3.86,7.19,2.57,1.64,5.96,2.45,10.17,2.45,3.74,0,7.45-1.23,11.13-3.68Z"/>
    <path class="cls-1" d="m774.89,141.39c-6.31-3.39-10.72-8.62-13.24-15.69-2.51-7.07-3.77-16.8-3.77-29.19v-36.82l-13.85.7v-31.03c2.69,0,7.19.17,13.5.53,0-1.99-.06-3.45-.18-4.38l-.18-14.55c13.79,0,28.52-.47,44.18-1.4l-.35,20.34,25.6-.7c-.47,7.01-.7,12.21-.7,15.6,0,1.75-.12,4.5-.35,8.24-.24,3.27-.35,5.79-.35,7.54l-24.54-.88.18,35.77c0,6.08.29,10.72.88,13.94.58,3.22,1.69,4.82,3.33,4.82,6.78,0,13.09-.29,18.93-.88-.7,14.03-1.05,24.43-1.05,31.21-7.01,1.29-14.09,1.93-21.21,1.93-11.57,0-20.51-1.69-26.82-5.08Z"/>
    <path class="cls-1" d="m875.76,145.35c3.92,2.45,5.87,6.43,5.87,11.92s-1.96,9.49-5.87,12.01c-3.91,2.51-10.61,3.77-20.07,3.77s-16.16-1.26-20.07-3.77c-3.92-2.51-5.87-6.52-5.87-12.01s1.96-9.47,5.87-11.92c3.92-2.45,10.61-3.68,20.07-3.68s16.16,1.23,20.07,3.68Zm.96-68.2c0,23.14.24,42.6.7,58.38-8.42-1.17-15.66-1.75-21.74-1.75-4.21,0-8.18.2-11.92.61-3.74.41-7.01.79-9.82,1.14.24-15.43.35-34.89.35-58.38,0-17.65-.12-33.95-.35-48.91h43.48c-.47,15.54-.7,31.85-.7,48.91Z"/>
    <path class="cls-1" d="m883.65,77.93c0-14.03-.12-33.54-.35-58.56v-5.26l44.18-4.21c-.82,25.36-1.4,48.62-1.75,69.77h5.61l25.24-49.96h44.36c-10.17,18.23-18.47,32.96-24.89,44.18-1.52,3.74-4.41,6.43-8.68,8.06-4.27,1.64-10.49,2.63-18.67,2.98v2.28c7.95.24,13.96,1.26,18.06,3.07,4.09,1.81,7.13,4.71,9.12,8.68,9.47,15.31,18.76,30.68,27.88,46.11h-46.81l-25.42-51.19h-5.79c.12,1.75.18,4.09.18,7.01.47,15.43.99,30.15,1.58,44.18h-44.18c.23-27.58.35-49.96.35-67.14Z"/>
  </g>
</svg>