<?xml version="1.0" encoding="UTF-8"?>
<svg id="Layer_1" data-name="Layer 1" xmlns="http://www.w3.org/2000/svg" viewBox="0 0 867.01 580.41">
  <defs>
    <style>
      .cls-1 {
        fill: #1a9952;
        stroke-width: 0px;
      }
    </style>
  </defs>
  <path class="cls-1" d="m105.9,278.53c.99,2.11,3.1,3.43,5.38,3.43.32,0,.64-.03.96-.08l67.47-10.97c2.32-.37,4.19-2.08,4.79-4.34l8.47-32.22,15.21-146.2-51.14-3.64c-.14-.01-.28-.01-.42-.01-2.95,0-5.49,2.19-5.88,5.16l-9.16,69.52c-.44,3.37-3.17,5.16-5.91,5.16-2.38,0-4.75-1.35-5.63-4.17l-22.33-71.62c-.79-2.55-3.14-4.17-5.66-4.17-.66,0-1.32.11-1.98.34l-66.22,23.47c-3.3,1.16-4.87,4.92-3.4,8.09l75.45,162.25Z"/>
  <path class="cls-1" d="m232.13,50.71c2.74,4.49,7.42,8.5,14.03,12.03,6.6,3.53,14.49,5.89,23.67,7.09,3.08.4,6.07.6,8.99.6,4.8,0,9.38-.54,13.75-1.63,7.03-1.75,12.71-4.41,17.05-7.98,4.33-3.56,7.86-7.63,10.59-12.22,2.73-4.57,3.76-9.37,3.08-14.4-.68-5.02-2.45-9.78-5.33-14.3-2.88-4.5-7.69-8.53-14.42-12.08-6.74-3.54-14.97-5.95-24.66-7.22-3.06-.4-6.02-.6-8.9-.6-4.79,0-9.34.56-13.65,1.66-6.9,1.76-12.45,4.44-16.65,8.02-4.21,3.6-7.6,7.68-10.2,12.28-2.6,4.59-3.5,9.41-2.69,14.45.8,5.04,2.58,9.81,5.34,14.3Z"/>
  <path class="cls-1" d="m204.28,236.43l-3.29,31.58c-.34,3.3,2.08,6.23,5.38,6.52l73.54,6.49c.18.01.36.02.53.02,2.88,0,5.38-2.09,5.85-4.98l8.78-54-2.46-132.13-61.53-10.36h-.01s-4.06-.69-4.06-.69c-.33-.06-.67-.08-.99-.08-2.7,0-5.08,1.84-5.73,4.47-.08.27-.13.56-.16.85l-.5,4.84-7.58,72.79-3.89,37.33-3.88,37.35Z"/>
  <path class="cls-1" d="m309.85,75.34c-2.9,0-5.34,2.1-5.83,4.88-.07.38-.1.76-.09,1.16l.09,4.66.1,5.83,1.24,66.85.6,32.09.59,32.09,1.12,60.55c.06,3.01,2.35,5.49,5.33,5.8l65.78,6.71c.21.02.41.03.61.03,3.31,0,6.03-2.74,5.92-6.12l-.98-30.91c-1.05-24.86-.33-49.72,2.19-74.58,2.48-24.6,6.97-36.9,13.48-36.9.07,0,.14,0,.21.01,10.31.26,15.07,28.96,14.28,86.08l-2.47,51.38c-.16,3.4,2.56,6.21,5.92,6.21.11,0,.21,0,.31-.01l25.97-1.33c1.93-.75,4.02-1.16,6.2-1.16.37,0,.75.01,1.13.03l6.49.42,33.34-1.71c3.07-.16,5.51-2.62,5.63-5.69.13-3.3.26-8.11.39-14.42.08-4.33.14-8.57.18-12.74-16.11-18.6-26.11-43.79-29.8-75.08-3.07-27.01,1.11-51.88,12.43-74.03-.97-2.13-1.99-4.12-3.05-5.96-8.46-14.54-20.43-23.6-35.9-27.17-5.09-1.18-10.14-1.76-15.15-1.76-10.2,0-20.23,2.44-30.07,7.31-8.56,4.25-15.93,9.73-22.11,16.45-1.27,1.38-2.89,2-4.46,2-3.13,0-6.11-2.45-5.92-6.19l.26-5.07c.16-3.22-2.28-5.98-5.5-6.22l-48.02-3.47c-.15,0-.3-.02-.44-.02Z"/>
  <path class="cls-1" d="m479.18,178.18c2.68,22.82,8.83,41.88,18.42,57.17,1.8,2.87,3.71,5.61,5.76,8.21,1.81,2.31,3.71,4.52,5.71,6.62,1.34,1.4,2.71,2.75,4.13,4.06,12.98,11.98,28.75,19.76,47.3,23.36,3.95-4.11,8.92-7.74,14.86-10.83,7.59-3.94,16.29-6.42,25.87-7.37,3.61-.36,7.13-.55,10.49-.55,6.9,0,13.36.78,19.2,2.3,6.26,1.64,11.65,3.92,16.11,6.81,2.91-1.24,5.8-2.57,8.67-4,6.41-3.18,11.61-6.01,15.59-8.48,3.99-2.48,7.79-5.18,11.42-8.13,3.63-2.95,5.98-4.85,7.03-5.72,1.05-.86,1.78-1.6,2.21-2.22l-34.12-52.19c-1.14-1.75-3.04-2.7-4.98-2.7-1.13,0-2.27.33-3.28,1.01-10.97,7.45-21.15,13.37-30.53,17.77-10.77,5.06-19.16,8.07-25.17,9.02-3.05.49-5.9.73-8.55.73s-4.97-.23-7.17-.69c-4.47-.93-7.26-1.83-8.36-2.71-1.1-.87-1.85-1.68-2.25-2.41l105.61-44.78c2.59-1.1,4.09-3.87,3.52-6.62-3.63-17.55-9.32-33.03-17.07-46.42-8.44-14.6-18.23-25.92-29.38-33.97-11.14-8.05-23.12-13.32-35.94-15.83-5.39-1.05-10.79-1.57-16.21-1.57-7.51,0-15.05,1-22.65,3.01-28.24,7.3-48.79,21.79-61.63,43.48-.3.51-.59,1.01-.88,1.52-1.28,2.24-2.47,4.5-3.59,6.79-1.27,2.64-2.43,5.31-3.48,8.02-6.8,17.47-9.02,36.58-6.66,57.31Zm71.96-42.15c1.8-7.04,5.77-12.2,11.9-15.47,1.85-1.01,3.84-1.52,5.98-1.52,1.26,0,2.56.17,3.92.52,3.66.95,6.83,2.45,9.49,4.52,2.66,2.07,5.41,4.6,8.23,7.57,2.83,2.98,4.77,5.12,5.81,6.4,1.04,1.3,1.79,2.44,2.24,3.43l-39.71,17.25c-.77.34-1.58.5-2.37.5-2.54,0-4.92-1.64-5.68-4.25-.15-.53-.32-1.1-.5-1.69-1.35-4.45-1.12-10.2.69-17.26Z"/>
  <path class="cls-1" d="m254.04,480.27c1.84-14.16,7.31-26.67,16.28-37.19,4.75-5.57,9.91-10.37,15.43-14.36-.47-7.68-1.13-15.41-1.97-23.2-.03-.23-.05-.47-.08-.7l-12.86-43.67c-.72-2.47-.88-4.97-.54-7.38-2.62-4.04-5.92-7.76-9.89-11.14-7.25-6.17-15.46-10.34-24.62-12.51-5.77-1.36-11.54-2.04-17.32-2.04-3.4,0-6.81.24-10.22.71-9.2,1.28-17.81,5.49-25.83,12.65-8.03,7.16-14.05,16.73-18.07,28.71l-.98-4.41c-.64-3.21-1.98-7.05-4.01-11.51-2.03-4.47-4.6-8.96-7.69-13.48s-7.53-8.51-13.32-11.97c-5.79-3.45-12.39-5.36-19.78-5.72-1.09-.05-2.17-.08-3.24-.08-4.34,0-8.44.44-12.31,1.32-4.82,1.09-8.93,2.48-12.31,4.17-3.4,1.69-6.61,3.79-9.64,6.28-3.04,2.51-5.4,4.78-7.08,6.81-1.69,2.04-3.25,4.21-4.69,6.53-1.44,2.31-2.31,3.86-2.61,4.64-.3.77-.6,1.42-.88,1.94l-1.13-24.48c-.14-2.88-2.32-5.24-5.18-5.61l-48.51-6.2c-.25-.03-.51-.05-.76-.05-3.17,0-5.85,2.55-5.92,5.81L0,529.89c-.07,3.1,2.26,5.72,5.33,6.03l64.25,6.45c.2.02.4.03.6.03,3.25,0,5.95-2.66,5.92-5.99l-.25-27.95c.05-23.03,1.83-46.11,5.33-69.25,3.49-23.07,8.53-34.61,15.13-34.61h.06c10.58,0,16.26,27.68,17.02,83.04l-.97,49.34c-.06,3.33,2.62,6.05,5.93,6.05h.15l52.9-1.36c3.03-.07,5.51-2.42,5.76-5.43l2.38-28.33c1.61-22.42,4.47-44.66,8.58-66.7,3.93-21.08,8.02-31.62,12.26-31.62.2,0,.39.02.59.07,10.26,1.79,11.88,46.29,4.87,133.49-.27,3.34,2.27,6.26,5.62,6.42l66.16,3.2c.1,0,.2.01.29.01,2.09,0,3.95-1.1,5.01-2.77-2.57-1.77-5-3.67-7.29-5.7-17.72-15.68-24.99-37.21-21.59-64.04Z"/>
  <path class="cls-1" d="m442.66,541.23l-.03-.11c-4.92-18.37-8.05-48.72-9.57-92.67l-5.16-.19c-9.14-.34-16.5-7.77-16.75-16.91l-1.26-46.33c-.13-4.73,1.62-9.21,4.93-12.6,3.25-3.35,7.79-5.27,12.46-5.27.31,0,.62.01.93.03l3.9.2.02-1.11c-10.38-12.57-25.12-21.13-44.25-25.68-12.3-2.92-24.47-4.38-36.52-4.38-7.11,0-14.18.51-21.2,1.52-16.92,2.45-31.96,6.82-45.1,13.1-.88.42-1.62,1.03-2.19,1.76-1.15,1.47-1.59,3.43-1.03,5.32l13.16,44.68v.02l3.76,12.76c.77,2.62,3.16,4.26,5.7,4.26.87,0,1.75-.19,2.6-.61l8.05-3.94c15.88-6.86,28.02-10.3,36.41-10.3,2.51,0,4.68.31,6.52.92,6.05,2.01,4.44,11.14-1.93,11.44-6.34.29-14.15,1.65-23.44,4.07-9.28,2.42-18.66,5.71-28.13,9.86-2.38,1.04-4.7,2.23-6.96,3.57-1.9,1.13-3.76,2.35-5.57,3.7-1.9,1.39-3.75,2.91-5.56,4.54-2.56,2.32-5.03,4.87-7.41,7.65-7.53,8.83-12.08,19.23-13.63,31.21-2.9,22.91,3.04,40.9,17.82,53.98.43.38.87.76,1.31,1.13,1.74,1.46,3.56,2.84,5.48,4.13,1.76,1.21,3.6,2.34,5.52,3.4,13.64,7.6,31.12,11.84,52.43,12.73,3.06.13,6.18.19,9.38.19,24.82,0,53.74-3.85,86.75-11.57-.51-1.44-.98-2.9-1.41-4.4l-.03-.1Zm-71.92-40.98l-4.77.22c-.34.01-.67.01-1,.01-6.82,0-13.74-.73-20.75-2.17-7.35-1.5-11.11-3.98-11.27-7.41-.75-4.71,5.64-8.17,19.14-10.4.15-.03.31-.05.46-.06l16.89-1.66c.19-.01.39-.02.58-.02,3.13,0,5.77,2.46,5.92,5.65l.45,9.64c.15,3.27-2.38,6.05-5.65,6.2Z"/>
  <path class="cls-1" d="m575.79,550.34l-8.16-64.87c-.33.14-.65.31-.96.52l-3.87,2.58c-6.34,4.49-13.49,8.86-21.42,13.09-7.46,3.98-12.94,5.97-16.42,5.97-.22,0-.43-.01-.64-.02-3.77-.25-5.52-20.4-5.21-60.45.02-3.27,2.69-5.91,5.93-5.91.09,0,.19.01.29.01l20.47,1c.1,0,.2.01.3.01,3.13,0,5.74-2.45,5.92-5.61l2.52-46.06c.18-3.29-2.35-6.1-5.65-6.25l-22.26-1.04c-3.25-.15-5.78-2.92-5.65-6.18.91-23.38,1.92-45.51,3.03-66.41.17-3.24-2.3-6-5.54-6.21l-60.54-3.91-7.12-.46c-.14-.01-.27-.02-.39-.02-1.23,0-2.39.38-3.34,1.04-1.54,1.04-2.56,2.8-2.59,4.81l-.84,56.39-.15,10.16v.79c-.04,2.27-1.35,4.22-3.24,5.18-.81.42-1.73.66-2.7.66-.11,0-.21,0-.32-.01l-9.64-.51c-.11-.01-.21-.01-.32-.01-3.32,0-6.02,2.74-5.93,6.09l1.27,46.33c.08,3.12,2.58,5.65,5.71,5.76l10.31.38c3.12.12,5.61,2.65,5.71,5.78,1.25,40.32,3.85,69.86,7.79,88.6.51,2.37,1.03,4.57,1.57,6.59.61,2.13,1.31,4.17,2.1,6.14.85,2.12,1.81,4.15,2.87,6.09,4.3,7.9,10.32,14.26,18.04,19.11,11.37,7.14,24.33,10.78,38.87,10.91.35.01.7.01,1.05.01,14.23,0,29.16-2.58,44.78-7.74,7.93-2.62,15.53-5.8,22.77-9.53-4.48-2.67-7.7-7.31-8.4-12.8Z"/>
  <path class="cls-1" d="m659.98,359.11c-.21-3.13-2.82-5.53-5.91-5.53-.13,0-.25,0-.38,0l-84.08,5.22c-3.42.21-5.95,3.26-5.52,6.66l13.84,109.97,1.01,8.04,2.1,16.7,6.13,48.73c.38,3,2.94,5.19,5.88,5.19.27,0,.56-.02.84-.06l7.21-1.02,7.64-1.08,6.11-.87,42-5.95c-.21-1.15-.29-2.35-.25-3.57l5.13-156.6-1.75-25.84Z"/>
  <path class="cls-1" d="m644.81,280.74c-1.42-1.39-3.09-2.65-4.99-3.79-2.24-1.33-4.81-2.49-7.71-3.48-1.3-.45-2.66-.86-4.09-1.23-4.91-1.28-10.34-1.92-16.3-1.92-2.99,0-6.11.16-9.36.48-8.16.81-15.4,2.87-21.71,6.15-1.63.85-3.15,1.73-4.58,2.65-2.48,1.61-4.66,3.33-6.53,5.17-1.23,1.21-2.33,2.46-3.29,3.77-.35.48-.7.96-1.03,1.45-2.76,4.03-4.8,8.31-6.12,12.82-1.49,5.07-1.28,9.96.66,14.68,1.92,4.73,4.74,8.97,8.44,12.72,3.69,3.76,9.15,6.6,16.39,8.54,4.91,1.31,10.28,1.97,16.11,1.97,2.75,0,5.6-.14,8.56-.44,8.15-.81,15.46-2.86,21.91-6.16,6.45-3.29,11.38-7.17,14.79-11.64,3.41-4.45,5.93-9.22,7.55-14.3,1.62-5.08,1.53-9.98-.26-14.72-1.75-4.59-4.44-8.71-8.09-12.36-.11-.12-.23-.24-.35-.36Z"/>
  <path class="cls-1" d="m578.66,483.16s.04.04.06.06c-.02-.02-.04-.04-.05-.06h-.01Z"/>
  <path class="cls-1" d="m864.5,496.62l-63.29-44.72c-3.57-2.52-3.28-7.9.54-10.03l60.66-33.71c2.94-1.64,3.93-5.38,2.2-8.25l-37.06-61.49c-1.11-1.85-3.07-2.87-5.08-2.87-1.11,0-2.22.3-3.22.95l-46.09,29.84c-1.03.66-2.13.96-3.21.96-3.21,0-6.16-2.67-5.94-6.3l4.85-79.99c.19-3.18-2.18-5.95-5.36-6.26l-80.12-7.67c-.19-.02-.39-.03-.58-.03-3.16,0-5.81,2.51-5.92,5.74l-3.67,111.95-1.87,57.14-1.87,57.13-1.41,42.91c-.02.5.03.99.14,1.45.44,2.08,1.97,3.77,4,4.4.43.14.89.23,1.36.26l6.29.45,66.32,4.77c.14.01.28.02.43.02,3.11,0,5.73-2.44,5.91-5.6l1.63-28.7c.2-3.4,3.01-5.61,5.96-5.61,1.37,0,2.78.48,3.95,1.55l50.71,46.04c1.14,1.04,2.57,1.54,3.98,1.54,1.78,0,3.54-.79,4.71-2.32l42.33-55.09c2.05-2.68,1.47-6.52-1.28-8.46Z"/>
</svg>