<?xml version="1.0" encoding="UTF-8"?>
<svg id="Layer_1" data-name="Layer 1" xmlns="http://www.w3.org/2000/svg" viewBox="0 0 957 204.79">
  <defs>
    <style>
      .cls-1 {
        fill: #1a9952;
        stroke-width: 0px;
      }
    </style>
  </defs>
  <path class="cls-1" d="m80.62,53.59c-.09-.01-.18-.01-.27-.01-1.87,0-3.48,1.39-3.73,3.27l-5.8,44.09c-.28,2.14-2.02,3.27-3.75,3.27-1.51,0-3.02-.86-3.57-2.65l-14.16-45.41c-.5-1.62-1.99-2.64-3.59-2.64-.42,0-.84.07-1.26.21L2.5,68.6c-2.09.74-3.09,3.12-2.15,5.13l47.84,102.89c.63,1.34,1.97,2.17,3.41,2.17.2,0,.41-.01.61-.05l42.79-6.95c1.46-.24,2.65-1.32,3.03-2.76l5.37-20.45,9.65-92.69-32.43-2.3Z"/>
  <path class="cls-1" d="m127.61,50.46l-2.62-.44c-.21-.04-.42-.06-.63-.06-1.71,0-3.22,1.17-3.64,2.84-.05.17-.08.35-.1.54l-.32,3.07-4.8,46.14-2.47,23.71-2.45,23.64-2.09,20.05c-.22,2.09,1.32,3.95,3.41,4.13l46.63,4.12c.12.01.23.01.34.01,1.82,0,3.41-1.32,3.71-3.16l5.56-34.23-1.55-83.8-38.98-6.56Z"/>
  <path class="cls-1" d="m128.23,32.15c1.74,2.85,4.71,5.4,8.9,7.63,4.18,2.24,9.19,3.74,15.01,4.5,1.95.25,3.85.38,5.7.38,3.04,0,5.95-.34,8.72-1.03,4.46-1.11,8.06-2.8,10.81-5.06,2.74-2.26,4.98-4.85,6.72-7.75,1.73-2.9,2.38-5.94,1.95-9.13-.43-3.19-1.56-6.21-3.38-9.07-1.83-2.86-4.88-5.41-9.15-7.66s-9.49-3.78-15.63-4.58c-1.94-.25-3.82-.38-5.64-.38-3.04,0-5.93.35-8.66,1.05-4.38,1.12-7.9,2.82-10.56,5.09-2.67,2.28-4.82,4.87-6.47,7.78-1.65,2.92-2.22,5.97-1.7,9.17.51,3.19,1.64,6.22,3.38,9.06Z"/>
  <path class="cls-1" d="m285.55,66.85c-.62-1.35-1.27-2.61-1.94-3.77-5.37-9.22-12.95-14.96-22.76-17.23-3.23-.74-6.43-1.12-9.61-1.12-6.47,0-12.83,1.55-19.07,4.64-5.43,2.69-10.1,6.17-14.02,10.43-.81.88-1.83,1.27-2.83,1.27-1.98,0-3.87-1.56-3.75-3.93l.16-3.21c.11-2.04-1.44-3.8-3.48-3.94l-30.46-2.21c-.09,0-.18,0-.27,0-1.85,0-3.39,1.34-3.7,3.1-.04.23-.06.48-.06.73l.05,2.95.07,3.7.79,42.41.38,20.35.38,20.31.71,38.42c.03,1.9,1.48,3.48,3.38,3.67l41.71,4.26c.13.01.26.02.39.02,2.09,0,3.82-1.74,3.75-3.88l-.62-19.6c-.67-15.76-.21-31.53,1.38-47.29,1.58-15.6,4.43-23.4,8.55-23.4h.13c6.54.17,9.56,18.36,9.06,54.59l-1.56,32.58c-.11,2.15,1.62,3.94,3.75,3.94.07,0,.13,0,.2-.01l46.37-2.38c1.95-.1,3.49-1.66,3.57-3.61.08-2.09.16-5.14.24-9.14.05-2.74.09-5.43.11-8.08-10.21-11.79-16.55-27.76-18.88-47.61-1.95-17.13.7-32.9,7.88-46.95Z"/>
  <path class="cls-1" d="m380.67,47.84c-7.07-5.1-14.66-8.45-22.79-10.04-3.42-.66-6.84-.99-10.28-.99-4.76,0-9.55.63-14.36,1.9-17.91,4.63-30.94,13.82-39.09,27.58-.19.32-.37.64-.55.96-.82,1.42-1.58,2.86-2.27,4.32-.82,1.66-1.56,3.35-2.22,5.07-4.3,11.08-5.71,23.19-4.22,36.34,1.71,14.47,5.6,26.55,11.67,36.24,1.15,1.83,2.37,3.58,3.67,5.24,1.15,1.46,2.35,2.85,3.62,4.17.84.89,1.71,1.75,2.61,2.58,11.78,10.87,27.18,16.3,46.2,16.3h.5c5.62,0,11.2-.47,16.75-1.39,5.54-.93,10.39-2.11,14.57-3.55,4.16-1.44,8.28-3.17,12.34-5.19,1.15-.57,2.24-1.12,3.27-1.66l.9-42.71-2.81-4.3c-.73-1.1-1.93-1.7-3.16-1.7-.72,0-1.44.2-2.08.63-6.96,4.73-13.41,8.48-19.36,11.27-6.83,3.21-12.15,5.12-15.96,5.72-1.93.31-3.74.47-5.43.47s-3.14-.15-4.54-.44c-2.84-.59-4.6-1.16-5.3-1.72-.7-.55-1.17-1.06-1.43-1.53l60.43-25.63.65-31.33c-.85-1.74-1.75-3.43-2.7-5.07-5.35-9.25-11.56-16.43-18.63-21.54Zm-45.16,52.81c-.49.22-1,.32-1.51.32-1.61,0-3.12-1.04-3.6-2.7-.09-.34-.2-.69-.31-1.07-.86-2.82-.71-6.47.43-10.94,1.15-4.47,3.66-7.74,7.55-9.81,1.17-.65,2.43-.97,3.79-.97.8,0,1.62.11,2.48.33,2.33.6,4.34,1.56,6.02,2.87,1.69,1.31,3.43,2.92,5.23,4.8,1.79,1.89,3.02,3.25,3.68,4.06.66.82,1.13,1.55,1.42,2.17l-25.18,10.94Z"/>
  <path class="cls-1" d="m568.31,141.29c1.16-8.98,4.63-16.91,10.32-23.58,3.01-3.53,6.29-6.58,9.79-9.11-.3-4.87-.72-9.77-1.25-14.71-.02-.14-.03-.28-.05-.42l-8.16-27.72c-.46-1.57-.56-3.17-.34-4.69-1.67-2.55-3.76-4.9-6.27-7.05-4.6-3.91-9.8-6.56-15.61-7.93-3.66-.86-7.32-1.29-10.99-1.29-2.16,0-4.32.15-6.48.44-5.83.82-11.29,3.49-16.38,8.03-5.09,4.54-8.91,10.61-11.45,18.21l-.62-2.8c-.41-2.04-1.26-4.47-2.55-7.3-1.29-2.84-2.92-5.69-4.87-8.55-1.97-2.87-4.78-5.39-8.45-7.59-3.67-2.19-7.86-3.4-12.55-3.63-.69-.03-1.37-.05-2.05-.05-2.75,0-5.35.28-7.81.84-3.05.69-5.66,1.57-7.8,2.64-2.16,1.07-4.19,2.4-6.12,3.99-1.92,1.59-3.42,3.02-4.49,4.31-1.07,1.3-2.06,2.67-2.97,4.14-.91,1.47-1.46,2.45-1.65,2.94-.19.5-.38.91-.56,1.24l-.72-15.52c-.08-1.83-1.47-3.33-3.28-3.56l-30.76-3.93c-.16-.02-.32-.03-.48-.03-2.02,0-3.71,1.61-3.76,3.68l-.64,30.62-.19,9.03-.24,11.51-.19,9.1-.09,4.11-.08,3.99-.22,10.27-.13,6.44-.13,6.43-.58,27.73-.1,4.34-.08,4.24-.06,2.66c-.05,1.96,1.43,3.62,3.38,3.82l40.74,4.09c.13.01.25.02.38.02,2.06,0,3.78-1.69,3.76-3.8l-.17-17.72c.04-14.61,1.16-29.24,3.39-43.91,2.21-14.63,5.41-21.95,9.59-21.95h.04c6.71,0,10.31,17.55,10.79,52.65l-.61,31.29c-.05,2.12,1.66,3.84,3.75,3.84h.1l33.55-.86c1.92-.05,3.49-1.54,3.65-3.45l1.5-17.96c1.03-14.22,2.84-28.32,5.45-42.3,2.49-13.36,5.08-20.05,7.77-20.05.13,0,.25.02.37.05,6.51,1.13,7.54,29.35,3.09,84.64-.17,2.12,1.45,3.97,3.57,4.08l41.95,2.02c.06.01.13.01.19.01,1.32,0,2.51-.7,3.17-1.76-1.63-1.12-3.17-2.33-4.62-3.61-11.24-9.94-15.84-23.6-13.69-40.61Z"/>
  <path class="cls-1" d="m687.92,179.94l-.02-.06c-3.12-11.65-5.11-30.9-6.07-58.77l-3.27-.12c-5.8-.21-10.46-4.92-10.62-10.72l-.8-29.38c-.08-3,1.02-5.84,3.12-7.99,2.06-2.12,4.94-3.34,7.9-3.34.2,0,.4.01.6.02l2.46.13v-.7c-6.55-7.98-15.91-13.4-28.04-16.29-7.8-1.85-15.52-2.78-23.16-2.78-4.51,0-8.99.32-13.44.97-10.73,1.55-20.27,4.32-28.6,8.3-.57.27-1.04.66-1.39,1.13-.73.93-1,2.17-.65,3.36l8.31,28.24,2.42,8.2c.49,1.66,2,2.7,3.61,2.7.55,0,1.11-.12,1.65-.39l5.1-2.49c10.07-4.36,17.77-6.54,23.09-6.54,1.59.01,2.97.2,4.13.59,3.84,1.27,2.82,7.06-1.22,7.25-4.02.19-8.97,1.05-14.86,2.58-5.89,1.54-11.83,3.62-17.84,6.25-1.52.66-2.99,1.42-4.42,2.27-1.21.71-2.38,1.49-3.53,2.35-1.2.88-2.38,1.84-3.52,2.87-1.63,1.47-3.19,3.09-4.7,4.85-4.77,5.6-7.66,12.2-8.64,19.8-1.84,14.52,1.92,25.93,11.3,34.22.28.24.56.49.84.73,1.1.92,2.26,1.79,3.47,2.61,1.12.76,2.28,1.48,3.49,2.15,8.65,4.82,19.73,7.51,33.25,8.08,1.94.08,3.92.12,5.95.12,15.75,0,34.08-2.45,55.02-7.35-.33-.9-.63-1.83-.9-2.78l-.02-.07Zm-45.61-25.98l-3.03.14c-.21,0-.42.01-.63.01-4.33,0-8.71-.46-13.15-1.38-4.67-.95-7.05-2.52-7.15-4.7-.48-2.98,3.57-5.18,12.13-6.59.1-.02.2-.03.3-.04l10.7-1.05c.13-.01.25-.02.37-.02,1.99,0,3.66,1.56,3.76,3.59l.28,6.11c.1,2.07-1.5,3.83-3.58,3.93Z"/>
  <path class="cls-1" d="m772.34,185.72l-5.18-41.13c-.21.09-.41.2-.61.33l-2.45,1.63c-4.02,2.86-8.55,5.62-13.58,8.3-4.74,2.53-8.21,3.79-10.42,3.79-.14,0-.27,0-.4-.01-2.4-.16-3.5-12.94-3.31-38.33.02-2.08,1.71-3.75,3.76-3.75.06,0,.12,0,.19.01l12.98.63h.19c1.98,0,3.64-1.55,3.75-3.55l1.6-29.21c.11-2.09-1.49-3.87-3.58-3.96l-14.12-.66c-2.06-.1-3.66-1.86-3.58-3.92.58-14.82,1.22-28.86,1.92-42.11.11-2.06-1.46-3.81-3.51-3.94l-42.91-2.77c-.08-.01-.16-.01-.25-.01-2.03,0-3.72,1.64-3.75,3.7l-.54,35.77-.09,6.45v.48c-.03,1.45-.86,2.68-2.06,3.3-.51.26-1.1.41-1.71.41-.07,0-.13,0-.2-.01l-6.11-.32c-.07-.01-.14-.01-.21-.01-2.1,0-3.81,1.74-3.75,3.87l.79,29.37c.06,1.98,1.64,3.58,3.63,3.66l6.54.24c1.98.07,3.55,1.68,3.62,3.66.79,25.58,2.44,44.31,4.95,56.2.31,1.5.64,2.89.98,4.17.39,1.34.83,2.64,1.34,3.88.53,1.35,1.14,2.63,1.81,3.86,2.73,5.01,6.54,9.05,11.44,12.13,7.21,4.53,15.43,6.83,24.65,6.92h.67c9.02,0,18.49-1.64,28.39-4.91,5.03-1.66,9.85-3.67,14.45-6.04-2.85-1.69-4.89-4.63-5.33-8.12Z"/>
  <path class="cls-1" d="m767.52,46.14c2.34,2.38,5.81,4.18,10.4,5.41,3.11.84,6.51,1.25,10.21,1.25,1.74,0,3.55-.09,5.43-.28,5.17-.51,9.8-1.81,13.89-3.9,4.09-2.09,7.22-4.55,9.38-7.38,2.16-2.83,3.76-5.85,4.79-9.07,1.03-3.22.97-6.33-.17-9.34-1.14-3-2.93-5.69-5.35-8.06-2.43-2.37-5.98-4.17-10.65-5.39-3.11-.81-6.56-1.22-10.33-1.22-1.9,0-3.88.1-5.94.31-5.17.51-9.76,1.81-13.77,3.89-4,2.09-7.05,4.54-9.12,7.36-2.09,2.82-3.6,5.83-4.54,9.04-.95,3.22-.81,6.32.42,9.31,1.22,3,3,5.69,5.35,8.07Z"/>
  <path class="cls-1" d="m825.72,64.46c-.13-1.98-1.79-3.51-3.75-3.51-.08,0-.16.01-.23.01l-53.32,3.31c-2.17.14-3.77,2.07-3.5,4.23l8.77,69.74.64,5.09,1.33,10.58,3.89,30.91c.24,1.9,1.86,3.29,3.73,3.29.17,0,.35-.01.53-.04l4.57-.65,4.86-.69,3.86-.54,26.63-3.78c-.12-.73-.18-1.49-.15-2.26l3.25-99.29-1.11-16.4Z"/>
  <path class="cls-1" d="m955.41,151.66l-40.14-28.36c-2.26-1.59-2.08-5.01.35-6.36l38.46-21.38c1.87-1.03,2.5-3.4,1.4-5.23l-23.5-38.99c-.71-1.17-1.95-1.82-3.22-1.82-.7,0-1.41.2-2.04.61l-29.23,18.92c-.65.42-1.35.61-2.04.61-2.03,0-3.9-1.69-3.76-4l3.07-50.72c.12-2.02-1.38-3.78-3.4-3.97l-50.8-4.87c-.12-.01-.25-.01-.37-.01-2,0-3.68,1.59-3.75,3.63l-2.33,70.96-1.19,36.21-1.19,36.23-.89,27.27c-.01.32.02.63.09.92.29,1.31,1.26,2.38,2.53,2.78.28.09.57.15.87.17l4,.29,42.04,3.02c.09.01.19.01.28.01,1.97,0,3.63-1.54,3.75-3.55l1.03-18.2c.12-2.16,1.91-3.56,3.78-3.56.87,0,1.76.31,2.51.99l32.15,29.19c.72.66,1.63.98,2.52.98,1.13,0,2.25-.5,2.99-1.47l26.84-34.94c1.3-1.69.93-4.13-.81-5.36Z"/>
</svg>