<?xml version="1.0" encoding="UTF-8"?>
<svg id="Layer_1" data-name="Layer 1" xmlns="http://www.w3.org/2000/svg" viewBox="0 0 800 800">
  <defs>
    <style>
      .cls-1 {
        stroke-width: 0px;
      }
    </style>
  </defs>
  <path class="cls-1" d="m305.72,690.95c-52.53,0-101.92-20.46-139.06-57.6s-57.6-86.53-57.6-139.06,20.46-101.92,57.6-139.06l47.14-47.14c11.72-11.72,30.71-11.72,42.43,0,11.72,11.72,11.72,30.71,0,42.43l-47.14,47.14c-25.81,25.81-40.03,60.13-40.03,96.64s14.22,70.82,40.03,96.64c25.81,25.81,60.13,40.03,96.64,40.03s70.83-14.22,96.64-40.03l47.14-47.14c11.71-11.71,30.71-11.71,42.43,0,11.71,11.72,11.71,30.71,0,42.43l-47.14,47.14c-37.15,37.15-86.53,57.6-139.06,57.6Zm0-166.67c-7.68,0-15.36-2.93-21.21-8.79-11.72-11.71-11.72-30.71,0-42.43l188.56-188.56c11.72-11.71,30.71-11.71,42.43,0,11.72,11.72,11.72,30.71,0,42.43l-188.56,188.56c-5.86,5.86-13.54,8.79-21.21,8.79Zm259.27-23.57c-7.68,0-15.36-2.93-21.21-8.79-11.71-11.72-11.71-30.71,0-42.43l47.14-47.14c25.81-25.81,40.03-60.13,40.03-96.64s-14.21-70.82-40.03-96.64c-25.81-25.81-60.13-40.03-96.64-40.03-36.51,0-70.83,14.22-96.64,40.03l-47.14,47.14c-11.72,11.72-30.71,11.72-42.43,0-11.72-11.72-11.72-30.71,0-42.43l47.14-47.14c37.15-37.14,86.53-57.6,139.06-57.6,52.53,0,101.92,20.46,139.06,57.6,37.14,37.14,57.6,86.53,57.6,139.06s-20.46,101.92-57.6,139.06l-47.14,47.14c-5.86,5.86-13.54,8.79-21.21,8.79Z"/>
</svg>