<?xml version="1.0" encoding="utf-8"?>
<!-- Generator: Adobe Illustrator 27.9.6, SVG Export Plug-In . SVG Version: 9.03 Build 54986)  -->
<svg version="1.1" id="Layer_1" xmlns="http://www.w3.org/2000/svg" xmlns:xlink="http://www.w3.org/1999/xlink" x="0px" y="0px"
	 viewBox="0 0 800 800" style="enable-background:new 0 0 800 800;" xml:space="preserve">
<g id="Communication__x2F__Share_x5F_iOS_x5F_Export">
	<g id="Vector">
		<path d="M560.1,733.3H239.9c-41.2,0-63.9,0-85.3-10.9c-18.9-9.6-34-24.8-43.7-43.7C100,657.3,100,634.6,100,593.3v-160
			c0-34.3,0-53.2,7.6-71.6c10.2-24.7,29.4-43.9,54.1-54.1c18.4-7.6,37.3-7.6,71.6-7.6c18.4,0,33.3,14.9,33.3,33.3
			c0,18.4-14.9,33.3-33.3,33.3c-24.1,0-40,0-46.1,2.5c-8.1,3.4-14.7,9.9-18,18c-2.5,6.1-2.5,22-2.5,46.1v160c0,28.9,0,48,3.6,55.1
			c3.2,6.3,8.3,11.4,14.6,14.6c7.1,3.6,26.2,3.6,55,3.6h320.2c28.8,0,47.9,0,55-3.6c6.2-3.2,11.4-8.3,14.6-14.6
			c3.6-7.1,3.6-26.2,3.6-55V433.3c0-24.1,0-39.9-2.5-46.1c-3.4-8.1-9.9-14.7-18-18c-6.1-2.5-22-2.5-46.1-2.5
			c-18.4,0-33.3-14.9-33.3-33.3c0-18.4,14.9-33.3,33.3-33.3c34.3,0,53.2,0,71.6,7.6c24.7,10.2,43.9,29.4,54.1,54.1
			c7.6,18.4,7.6,37.3,7.6,71.6v160.1c0,41.2,0,63.9-10.9,85.3c-9.7,18.9-24.8,34.1-43.7,43.7C624,733.3,601.3,733.3,560.1,733.3z
			 M400,466.7c-18.4,0-33.3-14.9-33.3-33.3V180.5l-43.1,43.1c-13,13-34.1,13-47.1,0c-13-13-13-34.1,0-47.1l100-100
			c3.5-3.5,7.5-6,11.8-7.6c2.9-1.1,6.1-1.8,9.3-2c0,0,0,0,0.1,0c1.6-0.1,3.1-0.1,4.7,0c0,0,0,0,0.1,0c3.3,0.2,6.4,0.9,9.3,2
			c4.3,1.6,8.3,4.2,11.8,7.6l100,100c13,13,13,34.1,0,47.1c-13,13-34.1,13-47.1,0l-43.1-43.1v252.9
			C433.3,451.7,418.4,466.7,400,466.7z"/>
	</g>
</g>
</svg>
