<?xml version="1.0" encoding="UTF-8"?>
<svg id="Layer_1" data-name="Layer 1" xmlns="http://www.w3.org/2000/svg" viewBox="0 0 800 800">
  <defs>
    <style>
      .cls-1 {
        fill-rule: evenodd;
        stroke-width: 0px;
      }
    </style>
  </defs>
  <path class="cls-1" d="m571.65,176.65c-38.87-50.98-121.34-23.94-121.34,39.79v63.99c-125.74-1.49-211.76,41.73-269.05,102.09-61.25,64.53-86.44,145.2-97,200.36-5.28,27.58,12.81,47.59,31.82,54.5,18.16,6.6,42.43,3.77,58.63-14.74,45.97-52.54,135.27-125.87,275.6-121.08v82.02c0,63.72,82.47,90.76,121.34,39.78l124.79-163.67c26.96-35.36,26.96-83.99,0-119.36l-124.79-163.67Zm-405.58,360.33c60.17-52.51,146.55-101.79,284.24-101.79h33.71c18.62,0,33.71,14.84,33.71,33.16v115.22s124.78-163.67,124.78-163.67c8.99-11.79,8.99-28,0-39.79l-124.79-163.67v97.14c0,18.31-15.09,33.15-33.71,33.15h-33.71c-151.67,0-219.78,81.04-219.78,81.04-31.36,33.03-51.54,72.3-64.47,109.21Z"/>
</svg>