<?xml version="1.0" encoding="UTF-8"?>
<svg id="Layer_1" data-name="Layer 1" xmlns="http://www.w3.org/2000/svg" viewBox="0 0 800 800">
  <defs>
    <style>
      .cls-1 {
        fill-rule: evenodd;
        stroke-width: 0px;
      }
    </style>
  </defs>
  <path class="cls-1" d="m116.67,400c0-156.48,126.85-283.33,283.33-283.33s283.33,126.85,283.33,283.33-126.85,283.33-283.33,283.33c-55.74,0-107.62-16.06-151.4-43.8-8.15-5.16-18.13-6.54-27.37-3.78l-95.97,28.64,36.13-84.55c4.27-9.99,3.4-21.44-2.33-30.67-26.87-43.3-42.4-94.37-42.4-149.17ZM400,50c-193.3,0-350,156.7-350,350,0,61.27,15.77,118.94,43.49,169.09l-57.47,134.48c-5.08,11.89-2.83,25.64,5.78,35.29,8.61,9.65,22.02,13.45,34.41,9.75l149.98-44.76c51.23,29.37,110.61,46.15,173.82,46.15,193.3,0,350-156.7,350-350S593.3,50,400,50Zm76.42,422.75l-43.81,30.86c-20.52-11.69-43.2-28-65.95-50.75s-41.19-48.07-54.12-70.47l27.84-23.63c11.95-10.14,15.22-27.24,7.86-41.07l-35.47-66.67c-4.78-8.98-13.39-15.28-23.39-17.12-10-1.84-20.29.98-27.96,7.67l-10.52,9.18c-25.29,22.07-40.25,58.34-27.85,95.07,12.85,38.07,40.28,98,96.47,154.19,60.45,60.45,121.86,84.26,157.77,93.51,28.93,7.45,56.31-2.54,75.61-18.26l19.72-16.07c8.43-6.87,12.98-17.43,12.19-28.28-.8-10.85-6.84-20.63-16.18-26.2l-55.94-33.33c-11.3-6.73-25.5-6.19-36.26,1.38Z"/>
</svg>